<svg xmlns="http://www.w3.org/2000/svg" viewBox="0 0 37.52 26.96">
<defs><style>.fill-white{fill:#fff;}.fill-color{fill:#e60039;}</style></defs>
<path class="fill-white" d="M33.81.67H3.71A2.78,2.78,0,0,0,.94,3.45V23.51a2.78,2.78,0,0,0,2.77,2.78h30.1a2.78,2.78,0,0,0,2.77-2.78V3.45A2.78,2.78,0,0,0,33.81.67Z"/>
<path class="fill-color" d="M34.6,0H2.92A2.92,2.92,0,0,0,0,2.92V24A2.92,2.92,0,0,0,2.92,27H34.6A2.92,2.92,0,0,0,37.52,24V2.92A2.92,2.92,0,0,0,34.6,0ZM2.92,2H34.6a.92.92,0,0,1,.92.92V7.56l-16.76,7.7L2,7.56V2.92A.92.92,0,0,1,2.92,2ZM34.6,25H2.92A.92.92,0,0,1,2,24V9.76l16.76,7.7,16.76-7.7V24A.92.92,0,0,1,34.6,25Z"/>
</svg>