<svg xmlns="http://www.w3.org/2000/svg" viewBox="0 0 412 425">
<defs><style>.fill-white{fill:#fff;}</style></defs>
<path class="fill-white" d="M304.27,225.46a10.14,10.14,0,0,1-2.55-.33,10,10,0,0,1-7.13-12.22C294.7,212.48,306,167,276.42,137s-74.5-19.43-75-19.32a10,10,0,0,1-4.84-19.41c2.28-.57,56.41-13.6,94.06,24.71S314.54,215.7,313.93,218A10,10,0,0,1,304.27,225.46Z"/><path class="fill-white" d="M349.43,232.46a10,10,0,0,1-9.65-12.64,153.59,153.59,0,0,0,3.66-44c-1.93-31.88-13.56-57.27-34.57-75.46a128.49,128.49,0,0,0-74.43-31.59c-21.16-1.83-36.17,2-36.32,2A10,10,0,0,1,193,51.43c2.81-.74,69.52-17.65,128.93,33.8,25,21.68,39.38,52.82,41.48,90.05a170,170,0,0,1-4.37,49.8A10,10,0,0,1,349.43,232.46Z"/><path class="fill-white" d="M396.26,243.27a10.24,10.24,0,0,1-2.38-.28,10,10,0,0,1-7.34-12.09A229.2,229.2,0,0,0,391,171.46c-2.36-43.3-16.65-77.52-42.45-101.71-63.08-59.13-154.74-49.13-155.66-49A10,10,0,1,1,190.57.87c1-.12,25.86-2.93,59.34,2.25C294.45,10,333.3,28,362.25,55.16,391.65,82.72,408.51,122.77,411,171c1.86,35.88-4.77,63.52-5,64.68A10,10,0,0,1,396.26,243.27Z"/><path class="fill-white" d="M104.62,192.68c6.5-6.63,13.41-13.66,18.13-18.44,11.47-11.64,4.65-28.43-3.5-36.58s-35.58-35.58-41.56-41.4S68.87,86,60.06,82.46s-20-.84-26.27,5.82c-4.51,4.74-11.22,11-17.41,17.36Z"/><path class="fill-white" d="M334.91,352.81c-10.31-10-40.24-40.24-48.89-48.88s-25.94-12-37.57.33c-4.19,4.42-9.75,10-15.15,15.34l88.15,86.94c4.77-4.69,9.16-9.3,16.12-16.48C347.88,379.42,345.22,362.79,334.91,352.81Z"/><path class="fill-white" d="M219,333.57l-4.45,4.28S169,311.58,140.7,285s-53.87-74.15-53.87-74.15,1.44-1.48,3.79-3.86l-29.1-28.7L4.4,121.91c-4.57,11.78-6.59,32.24-1,64.3C10.68,228.44,41.27,285,80.18,325.88s92.78,81.8,149,93.44c43.13,8.93,64.9,5.52,76.6-.15Z"/>
</svg>